<svg xmlns="http://www.w3.org/2000/svg" viewBox="0 0 1024 1024" fill="none" role="img" aria-label="Aevelum overlapping arches logo mark">
  <title>Aevelum overlapping arches logo mark</title>
  <desc>A refined Aevelum mark with overlapping navy and gold arches on an institutional off-white icon surface.</desc>
  <defs>
    <linearGradient id="surface" x1="128" y1="96" x2="896" y2="928" gradientUnits="userSpaceOnUse">
      <stop stop-color="#F8FAFC"/>
      <stop offset="100%" stop-color="#EEF2F4"/>
    </linearGradient>
    <linearGradient id="navy" x1="256" y1="128" x2="768" y2="888" gradientUnits="userSpaceOnUse">
      <stop stop-color="#0B1F3A"/>
      <stop offset="100%" stop-color="#07111A"/>
    </linearGradient>
    <filter id="markShadow" x="88" y="84" width="848" height="848" color-interpolation-filters="sRGB" filterUnits="userSpaceOnUse">
      <feDropShadow dx="0" dy="24" flood-color="#07111A" flood-opacity="0.16" stdDeviation="22"/>
    </filter>
  </defs>

  <rect width="1024" height="1024" fill="#CBD5E1"/>
  <rect x="46" y="46" width="932" height="932" rx="182" fill="url(#surface)"/>
  <rect x="40" y="40" width="944" height="944" rx="188" stroke="#CBD5E1" stroke-opacity="0.95" stroke-width="18"/>

  <g filter="url(#markShadow)">
    <path
      fill="url(#navy)"
      fill-rule="evenodd"
      clip-rule="evenodd"
      d="M512 116
         L892 848
         H776
         L512 344
         L248 848
         H132
         L512 116Z
         M512 260
         L316 640
         H708
         L512 260Z"/>
    <path
      fill="#BD9B6B"
      fill-rule="evenodd"
      clip-rule="evenodd"
      d="M512 452
         L708 848
         H608
         L512 656
         L416 848
         H316
         L512 452Z
         M512 572
         L424 748
         H600
         L512 572Z"/>
  </g>
</svg>
