<svg xmlns="http://www.w3.org/2000/svg" viewBox="0 0 1280 640" fill="none">
  <defs>
    <linearGradient id="bg" x1="0" y1="0" x2="1280" y2="640" gradientUnits="userSpaceOnUse">
      <stop offset="0%" stop-color="#07111A"/>
      <stop offset="100%" stop-color="#0B1F3A"/>
    </linearGradient>
    <linearGradient id="accent" x1="0" y1="0" x2="1" y2="1">
      <stop offset="0%" stop-color="#7DAAB9"/>
      <stop offset="100%" stop-color="#BD9B6B"/>
    </linearGradient>
    <linearGradient id="edge" x1="0" y1="0" x2="1" y2="0">
      <stop offset="0%" stop-color="#00818F" stop-opacity="0.34"/>
      <stop offset="100%" stop-color="#7DAAB9" stop-opacity="0.16"/>
    </linearGradient>
  </defs>

  <rect width="1280" height="640" fill="url(#bg)"/>

  <g stroke="#343741" stroke-width="0.5" opacity="0.55">
    <line x1="0" y1="320" x2="1280" y2="320"/>
    <line x1="640" y1="0" x2="640" y2="640"/>
  </g>

  <g transform="translate(80, 195)">
    <rect width="88" height="88" rx="14" fill="url(#accent)"/>
    <circle cx="44" cy="44" r="25" stroke="#07111A" stroke-width="5"/>
    <path d="M21 44 H67" stroke="#07111A" stroke-width="5" stroke-linecap="round"/>
    <path d="M26 34 H62" stroke="#07111A" stroke-width="5" stroke-linecap="round"/>
    <path d="M26 54 H62" stroke="#07111A" stroke-width="5" stroke-linecap="round"/>
    <path d="M44 19 C33 30 33 58 44 69 C55 58 55 30 44 19" stroke="#07111A" stroke-width="5" stroke-linecap="round" stroke-linejoin="round"/>
  </g>

  <text x="184" y="258" font-family="'SF Mono', 'Fira Code', 'JetBrains Mono', Menlo, Monaco, Consolas, monospace" font-size="52" font-weight="700">
    <tspan fill="#F8FAFC">aevelum</tspan><tspan fill="#7DAAB9"> passport</tspan>
  </text>

  <text x="82" y="326" font-family="'Inter', 'SF Pro', -apple-system, system-ui, sans-serif" font-size="18" fill="#CBD5E1">
    Canton-native collateral capacity credentials
  </text>

  <g font-family="'Inter', system-ui, sans-serif" font-size="15" fill="#CBD5E1">
    <text x="82" y="384">Issue, present, reserve, revoke, and audit</text>
    <text x="82" y="408">repo pre-trade collateral capacity in Daml.</text>
  </g>

  <g transform="translate(730, 132)">
    <rect x="148" y="118" width="224" height="160" rx="16" fill="#0B1F3A" stroke="#7DAAB9" stroke-width="1.5"/>
    <text x="260" y="148" text-anchor="middle" font-family="'Inter', system-ui, sans-serif" font-size="10" font-weight="700" fill="#DDEFEA" letter-spacing="1.4">PASSPORT ACCOUNT</text>
    <rect x="176" y="172" width="76" height="36" rx="6" fill="#07111A" stroke="#00818F" stroke-width="1"/>
    <text x="214" y="194" text-anchor="middle" font-family="'SF Mono', Menlo, monospace" font-size="9" fill="#DDEFEA">Credential</text>
    <rect x="268" y="172" width="76" height="36" rx="6" fill="#07111A" stroke="#7DAAB9" stroke-width="1"/>
    <text x="306" y="194" text-anchor="middle" font-family="'SF Mono', Menlo, monospace" font-size="9" fill="#7DAAB9">Reserve</text>
    <circle cx="260" cy="242" r="4" fill="#BD9B6B"/>
    <text x="260" y="262" text-anchor="middle" font-family="'Inter', system-ui, sans-serif" font-size="9" fill="#CBD5E1">scoped disclosure</text>

    <g font-family="'SF Mono', Menlo, monospace" font-size="10" font-weight="600">
      <g transform="translate(40, 68)">
        <rect x="-48" y="-22" width="96" height="44" rx="8" fill="#0B1F3A" stroke="#00818F" stroke-width="1.5"/>
        <text y="4" text-anchor="middle" fill="#DDEFEA">Holder</text>
      </g>
      <g transform="translate(480, 68)">
        <rect x="-48" y="-22" width="96" height="44" rx="8" fill="#0B1F3A" stroke="#7DAAB9" stroke-width="1.5"/>
        <text y="4" text-anchor="middle" fill="#7DAAB9">Dealer</text>
      </g>
      <g transform="translate(40, 328)">
        <rect x="-48" y="-22" width="96" height="44" rx="8" fill="#0B1F3A" stroke="#00818F" stroke-width="1.5"/>
        <text y="4" text-anchor="middle" fill="#DDEFEA">Attester</text>
      </g>
      <g transform="translate(480, 328)">
        <rect x="-48" y="-22" width="96" height="44" rx="8" fill="#0B1F3A" stroke="#7DAAB9" stroke-width="1.5"/>
        <text y="4" text-anchor="middle" fill="#7DAAB9">Auditor</text>
      </g>
    </g>

    <g stroke="url(#edge)" stroke-width="1.5">
      <line x1="88" y1="78" x2="148" y2="144"/>
      <line x1="432" y1="78" x2="372" y2="144"/>
      <line x1="88" y1="318" x2="148" y2="252"/>
      <line x1="432" y1="318" x2="372" y2="252"/>
    </g>

    <circle cx="120" cy="112" r="3" fill="#00818F" opacity="0.55"/>
    <circle cx="400" cy="112" r="3" fill="#7DAAB9" opacity="0.45"/>
    <circle cx="120" cy="284" r="3" fill="#00818F" opacity="0.45"/>
    <circle cx="400" cy="284" r="3" fill="#7DAAB9" opacity="0.45"/>
  </g>

  <rect x="0" y="634" width="1280" height="6" fill="url(#accent)" opacity="0.65"/>
</svg>
