<svg xmlns="http://www.w3.org/2000/svg" viewBox="0 0 1280 640" fill="none">
  <defs>
    <linearGradient id="bg" x1="0" y1="0" x2="1280" y2="640" gradientUnits="userSpaceOnUse">
      <stop stop-color="#07111A"/>
      <stop offset="100%" stop-color="#0B1F3A"/>
    </linearGradient>
    <linearGradient id="darkSurface" x1="8" y1="8" x2="88" y2="88" gradientUnits="userSpaceOnUse">
      <stop stop-color="#0B1F3A"/>
      <stop offset="100%" stop-color="#07111A"/>
    </linearGradient>
    <linearGradient id="linkLine" x1="0" y1="0" x2="1" y2="0">
      <stop stop-color="#BD9B6B" stop-opacity="0.62"/>
      <stop offset="100%" stop-color="#CBD5E1" stop-opacity="0.20"/>
    </linearGradient>
    <clipPath id="globeInterior">
      <circle cx="44" cy="44" r="29"/>
    </clipPath>
  </defs>

  <rect width="1280" height="640" fill="url(#bg)"/>

  <g stroke="#343741" stroke-width="0.5" opacity="0.55">
    <line x1="0" y1="320" x2="1280" y2="320"/>
    <line x1="640" y1="0" x2="640" y2="640"/>
  </g>

  <g transform="translate(80, 195)">
    <rect x="4" y="4" width="80" height="80" rx="16" fill="url(#darkSurface)"/>
    <rect x="3" y="3" width="82" height="82" rx="17" stroke="#5F6673" stroke-opacity="0.95" stroke-width="2"/>
    <g clip-path="url(#globeInterior)">
      <path d="M44 12 C30 27 30 61 44 76 C58 61 58 27 44 12" stroke="#F8FAFC" stroke-opacity="0.18" stroke-width="4.8" stroke-linecap="round" stroke-linejoin="round"/>
      <path d="M16 44 H72" stroke="#BD9B6B" stroke-width="5.2"/>
      <path d="M22 33 H66" stroke="#BD9B6B" stroke-opacity="0.82" stroke-width="4.2" stroke-linecap="round"/>
      <path d="M22 55 H66" stroke="#BD9B6B" stroke-opacity="0.82" stroke-width="4.2" stroke-linecap="round"/>
    </g>
    <circle cx="44" cy="44" r="29" stroke="#F8FAFC" stroke-width="6"/>
  </g>

  <text x="184" y="258" font-family="'SF Mono', Menlo, Monaco, Consolas, monospace" font-size="52" font-weight="700" fill="#F8FAFC">aevelum</text>
  <text x="420" y="258" font-family="'SF Mono', Menlo, Monaco, Consolas, monospace" font-size="52" font-weight="700" fill="#BD9B6B">passport</text>

  <text x="82" y="326" font-family="'Inter', 'SF Pro', -apple-system, system-ui, sans-serif" font-size="18" fill="#CBD5E1">
    Canton-native collateral capacity credentials
  </text>

  <g font-family="'Inter', system-ui, sans-serif" font-size="15" fill="#CBD5E1">
    <text x="82" y="384">Issue, present, reserve, revoke, and audit</text>
    <text x="82" y="408">repo pre-trade collateral capacity in Daml.</text>
  </g>

  <g transform="translate(730, 132)">
    <rect x="148" y="118" width="224" height="160" rx="16" fill="#0B1F3A" stroke="#5F6673" stroke-width="1.5"/>
    <text x="260" y="148" text-anchor="middle" font-family="'Inter', system-ui, sans-serif" font-size="10" font-weight="700" fill="#F8FAFC" letter-spacing="1.4">PASSPORT ACCOUNT</text>
    <rect x="176" y="172" width="76" height="36" rx="6" fill="#07111A" stroke="#BD9B6B" stroke-width="1.2"/>
    <text x="214" y="194" text-anchor="middle" font-family="'SF Mono', Menlo, monospace" font-size="9" fill="#F8FAFC">Credential</text>
    <rect x="268" y="172" width="76" height="36" rx="6" fill="#07111A" stroke="#CBD5E1" stroke-width="1.2"/>
    <text x="306" y="194" text-anchor="middle" font-family="'SF Mono', Menlo, monospace" font-size="9" fill="#CBD5E1">Reserve</text>
    <circle cx="260" cy="242" r="4" fill="#BD9B6B"/>
    <text x="260" y="262" text-anchor="middle" font-family="'Inter', system-ui, sans-serif" font-size="9" fill="#CBD5E1">scoped disclosure</text>

    <g font-family="'SF Mono', Menlo, monospace" font-size="10" font-weight="600">
      <g transform="translate(40, 68)">
        <rect x="-48" y="-22" width="96" height="44" rx="8" fill="#0B1F3A" stroke="#BD9B6B" stroke-width="1.4"/>
        <text y="4" text-anchor="middle" fill="#F8FAFC">Holder</text>
      </g>
      <g transform="translate(480, 68)">
        <rect x="-48" y="-22" width="96" height="44" rx="8" fill="#0B1F3A" stroke="#5F6673" stroke-width="1.4"/>
        <text y="4" text-anchor="middle" fill="#CBD5E1">Dealer</text>
      </g>
      <g transform="translate(40, 328)">
        <rect x="-48" y="-22" width="96" height="44" rx="8" fill="#0B1F3A" stroke="#BD9B6B" stroke-width="1.4"/>
        <text y="4" text-anchor="middle" fill="#F8FAFC">Attester</text>
      </g>
      <g transform="translate(480, 328)">
        <rect x="-48" y="-22" width="96" height="44" rx="8" fill="#0B1F3A" stroke="#5F6673" stroke-width="1.4"/>
        <text y="4" text-anchor="middle" fill="#CBD5E1">Auditor</text>
      </g>
    </g>

    <g stroke="url(#linkLine)" stroke-width="1.8">
      <line x1="88" y1="78" x2="148" y2="144"/>
      <line x1="432" y1="78" x2="372" y2="144"/>
      <line x1="88" y1="318" x2="148" y2="252"/>
      <line x1="432" y1="318" x2="372" y2="252"/>
    </g>

    <circle cx="120" cy="112" r="3" fill="#BD9B6B" opacity="0.86"/>
    <circle cx="400" cy="112" r="3" fill="#CBD5E1" opacity="0.58"/>
    <circle cx="120" cy="284" r="3" fill="#BD9B6B" opacity="0.72"/>
    <circle cx="400" cy="284" r="3" fill="#CBD5E1" opacity="0.50"/>
  </g>

  <rect x="0" y="634" width="1280" height="6" fill="#BD9B6B" opacity="0.75"/>
</svg>
