<svg xmlns="http://www.w3.org/2000/svg" viewBox="0 0 1280 640" fill="none">
  <defs>
    <linearGradient id="bg" x1="0" y1="0" x2="1280" y2="640" gradientUnits="userSpaceOnUse">
      <stop offset="0%" stop-color="#07111A"/>
      <stop offset="58%" stop-color="#0B1F3A"/>
      <stop offset="100%" stop-color="#102A43"/>
    </linearGradient>
    <linearGradient id="accent" x1="0" y1="0" x2="1" y2="1">
      <stop offset="0%" stop-color="#0B1F3A"/>
      <stop offset="100%" stop-color="#005F9E"/>
    </linearGradient>
    <linearGradient id="line" x1="0" y1="0" x2="1" y2="0">
      <stop offset="0%" stop-color="#00818F" stop-opacity="0.34"/>
      <stop offset="100%" stop-color="#7DAAB9" stop-opacity="0.14"/>
    </linearGradient>
  </defs>

  <rect width="1280" height="640" fill="url(#bg)"/>

  <g stroke="#343741" stroke-width="0.6" opacity="0.44">
    <path d="M80 80 H1200"/>
    <path d="M80 560 H1200"/>
    <path d="M80 80 V560"/>
    <path d="M1200 80 V560"/>
    <path d="M640 80 V560" opacity="0.35"/>
  </g>

  <g transform="translate(96, 138)">
    <rect width="104" height="104" rx="18" fill="url(#accent)"/>
    <circle cx="52" cy="52" r="30" stroke="#F8FAFC" stroke-width="6"/>
    <path d="M25 52 H79" stroke="#F8FAFC" stroke-width="6" stroke-linecap="round"/>
    <path d="M31 40 H73" stroke="#F8FAFC" stroke-width="6" stroke-linecap="round"/>
    <path d="M31 64 H73" stroke="#F8FAFC" stroke-width="6" stroke-linecap="round"/>
    <path d="M52 22 C39 34 39 70 52 82 C65 70 65 34 52 22" stroke="#F8FAFC" stroke-width="6" stroke-linecap="round" stroke-linejoin="round"/>
  </g>

  <text x="224" y="190" font-family="'SF Mono', 'Fira Code', 'JetBrains Mono', Menlo, Monaco, Consolas, monospace" font-size="42" font-weight="700">
    <tspan fill="#F8FAFC">aevelum</tspan><tspan fill="#7DAAB9"> passport</tspan>
  </text>
  <text x="226" y="228" font-family="'Inter', 'SF Pro', -apple-system, system-ui, sans-serif" font-size="15" fill="#CBD5E1" letter-spacing="0.2">
    Daml/Canton-native collateral credential account
  </text>

  <text x="96" y="326" font-family="'Inter', 'SF Pro', -apple-system, system-ui, sans-serif" font-size="34" font-weight="750" fill="#F8FAFC">
    Collateral capacity,
  </text>
  <text x="96" y="366" font-family="'Inter', 'SF Pro', -apple-system, system-ui, sans-serif" font-size="34" font-weight="750" fill="#F8FAFC">
    credentialed before execution.
  </text>

  <g font-family="'Inter', 'SF Pro', -apple-system, system-ui, sans-serif" font-size="19" fill="#CBD5E1">
    <text x="98" y="424">Issue, present, reserve, revoke, and audit</text>
    <text x="98" y="452">repo pre-trade collateral capacity on Canton.</text>
  </g>

  <g transform="translate(98, 506)" font-family="'SF Mono', Menlo, Monaco, Consolas, monospace" font-size="13" font-weight="700">
    <rect width="102" height="34" rx="8" fill="#0B1F3A" stroke="#00818F" stroke-opacity="0.75"/>
    <text x="51" y="22" text-anchor="middle" fill="#DDEFEA">DPM 3.5</text>

    <rect x="120" width="134" height="34" rx="8" fill="#0B1F3A" stroke="#7DAAB9" stroke-opacity="0.75"/>
    <text x="187" y="22" text-anchor="middle" fill="#7DAAB9">Daml Script</text>

    <rect x="272" width="120" height="34" rx="8" fill="#0B1F3A" stroke="#BD9B6B" stroke-opacity="0.75"/>
    <text x="332" y="22" text-anchor="middle" fill="#BD9B6B">100% gates</text>
  </g>

  <g transform="translate(728, 122)">
    <rect x="142" y="122" width="246" height="176" rx="18" fill="#0B1F3A" stroke="#7DAAB9" stroke-width="1.5"/>
    <text x="265" y="154" text-anchor="middle" font-family="'Inter', system-ui, sans-serif" font-size="10" font-weight="800" fill="#DDEFEA" letter-spacing="1.8">PASSPORT ACCOUNT</text>

    <rect x="170" y="184" width="82" height="38" rx="7" fill="#07111A" stroke="#00818F"/>
    <text x="211" y="207" text-anchor="middle" font-family="'SF Mono', Menlo, monospace" font-size="9" fill="#DDEFEA">Credential</text>
    <rect x="278" y="184" width="82" height="38" rx="7" fill="#07111A" stroke="#7DAAB9"/>
    <text x="319" y="207" text-anchor="middle" font-family="'SF Mono', Menlo, monospace" font-size="9" fill="#7DAAB9">Reserve</text>

    <circle cx="265" cy="254" r="4" fill="#BD9B6B"/>
    <text x="265" y="276" text-anchor="middle" font-family="'Inter', system-ui, sans-serif" font-size="9" fill="#CBD5E1">scoped disclosure</text>

    <g font-family="'SF Mono', Menlo, monospace" font-size="10" font-weight="700">
      <g transform="translate(38, 70)">
        <rect x="-48" y="-22" width="96" height="44" rx="8" fill="#0B1F3A" stroke="#00818F" stroke-width="1.5"/>
        <text y="4" text-anchor="middle" fill="#DDEFEA">Holder</text>
      </g>
      <g transform="translate(492, 70)">
        <rect x="-48" y="-22" width="96" height="44" rx="8" fill="#0B1F3A" stroke="#7DAAB9" stroke-width="1.5"/>
        <text y="4" text-anchor="middle" fill="#7DAAB9">Dealer</text>
      </g>
      <g transform="translate(38, 350)">
        <rect x="-48" y="-22" width="96" height="44" rx="8" fill="#0B1F3A" stroke="#00818F" stroke-width="1.5"/>
        <text y="4" text-anchor="middle" fill="#DDEFEA">Attester</text>
      </g>
      <g transform="translate(492, 350)">
        <rect x="-48" y="-22" width="96" height="44" rx="8" fill="#0B1F3A" stroke="#7DAAB9" stroke-width="1.5"/>
        <text y="4" text-anchor="middle" fill="#7DAAB9">Auditor</text>
      </g>
    </g>

    <g stroke="url(#line)" stroke-width="2">
      <line x1="86" y1="82" x2="142" y2="154"/>
      <line x1="444" y1="82" x2="388" y2="154"/>
      <line x1="86" y1="338" x2="142" y2="266"/>
      <line x1="444" y1="338" x2="388" y2="266"/>
    </g>

    <circle cx="112" cy="114" r="3" fill="#00818F" opacity="0.7"/>
    <circle cx="418" cy="114" r="3" fill="#7DAAB9" opacity="0.65"/>
    <circle cx="112" cy="306" r="3" fill="#00818F" opacity="0.58"/>
    <circle cx="418" cy="306" r="3" fill="#7DAAB9" opacity="0.58"/>
  </g>

  <rect x="0" y="634" width="1280" height="6" fill="url(#accent)" opacity="0.75"/>
</svg>
